<svg width="323" height="19" viewBox="0 0 323 19" fill="none" xmlns="http://www.w3.org/2000/svg">
<rect width="30" height="19" rx="9.5" fill="#B9B7B7"/>
<g clip-path="url(#clip0_95_786)">
<path d="M13.0767 1.49995C12.9874 1.51323 12.9021 1.546 12.8269 1.59595C12.8269 1.59595 12.0484 2.08579 11.2115 2.61564C10.3745 3.14487 9.44347 3.72825 9.23055 3.84641L9.19178 3.86487C8.41886 4.34179 8.25824 5.12087 8.23055 5.55779C8.2287 5.5781 8.23055 5.59472 8.23055 5.61625C8.22378 5.77995 8.23055 5.88518 8.23055 5.88518V13.9239C8.23055 15.0919 9.59239 15.6538 10.8847 15.6538C11.3155 15.6538 11.7462 15.5843 12.1155 15.4612C12.3616 15.3381 12.5382 15.0919 12.5382 14.8458V8.38425C12.5382 6.96887 12.8459 6.30425 13.769 5.75041C14.0152 5.62733 16.5961 3.84579 16.5961 3.84579C16.7192 3.72272 16.8459 3.47287 16.8459 3.28825V3.23041C16.8459 2.98425 16.7229 2.79595 16.5382 2.67287C16.3536 2.54979 16.1075 2.54979 15.9229 2.67287C15.8613 2.73441 12.1075 5.26179 11.3075 5.69256C10.5075 6.18487 9.76101 6.30364 9.57639 6.05749C9.51916 6.00025 9.46932 5.82487 9.46132 5.65379V5.61502C9.46193 5.44764 9.50501 5.13256 9.84593 4.92272C10.1918 4.7301 11.0502 4.18179 11.8847 3.65379C12.2373 3.43041 12.281 3.40641 12.5573 3.23041C12.5937 3.38074 12.6853 3.51187 12.814 3.59768C12.9427 3.68349 13.099 3.7177 13.2518 3.6935C13.4045 3.66929 13.5426 3.58844 13.6384 3.46705C13.7343 3.34566 13.7809 3.19262 13.769 3.03841V2.11533C13.7697 2.02762 13.7516 1.94077 13.716 1.86061C13.6804 1.78045 13.628 1.70883 13.5625 1.65056C13.4969 1.59228 13.4197 1.5487 13.3359 1.52272C13.2521 1.49674 13.1637 1.48898 13.0767 1.49995ZM17.9998 3.65379C17.9019 3.67007 17.8094 3.70976 17.7302 3.76948C17.7302 3.76948 14.6324 5.85379 14.0958 6.21133L14.0767 6.23102C13.6312 6.56518 13.3672 6.96272 13.2496 7.32641C13.1841 7.53167 13.1517 7.74604 13.1536 7.96148V8.1541C13.1527 8.17317 13.1527 8.19226 13.1536 8.21133V15.6538C13.1536 16.823 14.5001 17.4999 15.7309 17.4999C16.2847 17.4999 16.7844 17.3806 17.1536 17.1344C17.8921 16.7036 21.4613 13.9233 21.4613 13.9233C21.6459 13.8003 21.769 13.6267 21.769 13.4421V5.4421C21.769 5.13441 21.6496 4.94979 21.4035 4.82672C21.2189 4.70364 20.9155 4.76148 20.7309 4.88456C19.7462 5.62302 17.0958 7.70795 16.4804 8.07718C15.6189 8.56948 14.8072 8.69256 14.4995 8.38487C14.3764 8.26179 14.3844 8.1461 14.3844 7.96148C14.3877 7.85482 14.4006 7.76497 14.4232 7.69195C14.4576 7.58487 14.5278 7.45318 14.7881 7.2501C14.8004 7.24025 14.7942 7.24087 14.8072 7.23102C15.2521 6.93379 16.6127 6.00641 17.5001 5.40333C17.5504 5.5382 17.6463 5.65119 17.7713 5.72263C17.8962 5.79407 18.0423 5.81945 18.184 5.79435C18.3257 5.76925 18.4542 5.69527 18.547 5.58526C18.6399 5.47525 18.6912 5.33619 18.6921 5.19225V4.26918C18.6928 4.18146 18.6747 4.09462 18.6391 4.01446C18.6035 3.9343 18.5511 3.86268 18.4856 3.8044C18.42 3.74613 18.3427 3.70254 18.259 3.67657C18.1752 3.65059 18.0868 3.64283 17.9998 3.65379ZM20.5382 8.1541V9.38487L17.4613 11.7689V10.5381L20.5382 8.1541Z" fill="black"/>
</g>
<rect x="209" width="57" height="19" rx="9.5" fill="#B9B7B7"/>
<path d="M223.112 11.3899C223.085 11.2771 223.016 11.1766 222.917 11.1055C222.818 11.0344 222.695 10.9971 222.57 10.9999H219.659C219.534 10.9971 219.411 11.0344 219.312 11.1055C219.213 11.1766 219.144 11.2771 219.117 11.3899L218.271 14.3899C218.253 14.4637 218.254 14.5402 218.272 14.6139C218.291 14.6875 218.328 14.7562 218.38 14.8149C218.432 14.8742 218.498 14.9217 218.573 14.9538C218.648 14.9859 218.73 15.0016 218.813 14.9999H223.421C223.502 15.0001 223.582 14.9836 223.656 14.9516C223.729 14.9196 223.793 14.8729 223.844 14.8149C223.895 14.7558 223.931 14.6869 223.948 14.6133C223.966 14.5397 223.966 14.4633 223.947 14.3899L223.112 11.3899ZM229.618 11.3899C229.59 11.2771 229.521 11.1766 229.422 11.1055C229.324 11.0344 229.201 10.9971 229.076 10.9999H226.164C226.039 10.9971 225.917 11.0344 225.818 11.1055C225.719 11.1766 225.65 11.2771 225.622 11.3899L224.777 14.3899C224.759 14.4637 224.759 14.5402 224.778 14.6139C224.797 14.6875 224.833 14.7562 224.885 14.8149C224.936 14.8729 225.001 14.9196 225.074 14.9516C225.147 14.9836 225.227 15.0001 225.308 14.9999H229.927C230.008 15.0001 230.088 14.9836 230.161 14.9516C230.234 14.9196 230.299 14.8729 230.35 14.8149C230.401 14.7558 230.436 14.6869 230.454 14.6133C230.472 14.5397 230.471 14.4633 230.453 14.3899L229.618 11.3899ZM222.38 6.63996L221.535 9.63993C221.517 9.71372 221.517 9.7903 221.536 9.86391C221.555 9.93753 221.591 10.0063 221.643 10.0649C221.694 10.1229 221.759 10.1697 221.832 10.2017C221.905 10.2337 221.985 10.2502 222.066 10.2499H226.674C226.755 10.2502 226.835 10.2337 226.908 10.2017C226.981 10.1697 227.046 10.1229 227.097 10.0649C227.148 10.0058 227.183 9.93691 227.201 9.86331C227.219 9.78971 227.219 9.71334 227.2 9.63993L226.36 6.63996C226.332 6.52717 226.263 6.42667 226.164 6.35556C226.065 6.28446 225.943 6.24714 225.818 6.24996H222.912C222.788 6.24945 222.668 6.28783 222.572 6.35875C222.475 6.42966 222.408 6.52887 222.38 6.63996ZM220.087 7.23495C220.087 7.33308 220.129 7.42719 220.205 7.49658C220.28 7.56597 220.382 7.60495 220.488 7.60495C220.593 7.60509 220.693 7.56833 220.769 7.50228C220.844 7.43622 220.889 7.3459 220.895 7.24995C220.945 6.85125 221.139 6.47969 221.446 6.19497C221.753 5.91024 222.154 5.72886 222.586 5.67997C222.694 5.67997 222.798 5.64046 222.874 5.57014C222.95 5.49981 222.993 5.40443 222.993 5.30497C222.993 5.20552 222.95 5.11014 222.874 5.03981C222.798 4.96949 222.694 4.92998 222.586 4.92998C222.155 4.89463 221.75 4.72142 221.442 4.44026C221.135 4.1591 220.943 3.78763 220.9 3.39C220.903 3.3395 220.894 3.28912 220.874 3.24188C220.855 3.19464 220.825 3.15151 220.787 3.11508C220.749 3.07866 220.704 3.04969 220.653 3.02991C220.603 3.01013 220.549 2.99996 220.494 3C220.386 3 220.283 3.03951 220.206 3.10983C220.13 3.18016 220.087 3.27554 220.087 3.375C220.049 3.77645 219.859 4.15261 219.549 4.43711C219.24 4.72161 218.831 4.89616 218.396 4.92998C218.343 4.93063 218.291 4.94085 218.243 4.96005C218.194 4.97925 218.15 5.00705 218.114 5.04187C218.077 5.0767 218.048 5.11785 218.028 5.163C218.009 5.20814 217.999 5.25638 218 5.30497C218.001 5.40403 218.045 5.49866 218.121 5.5687C218.197 5.63875 218.299 5.67868 218.407 5.67997C218.844 5.70705 219.255 5.87971 219.564 6.16578C219.873 6.45186 220.059 6.83185 220.087 7.23495ZM230.778 7.49995H230.637C230.457 7.47742 230.291 7.40116 230.162 7.28286C230.034 7.16456 229.951 7.01074 229.927 6.84496V6.71496C229.914 6.65721 229.88 6.60525 229.831 6.56793C229.782 6.53061 229.72 6.51021 229.656 6.51021C229.592 6.51021 229.53 6.53061 229.481 6.56793C229.431 6.60525 229.397 6.65721 229.385 6.71496V6.84496C229.36 7.01074 229.278 7.16456 229.149 7.28286C229.021 7.40116 228.854 7.47742 228.675 7.49995H228.534C228.471 7.51156 228.415 7.5428 228.374 7.58838C228.334 7.63395 228.312 7.69104 228.312 7.74995C228.312 7.80885 228.334 7.86594 228.374 7.91152C228.415 7.95709 228.471 7.98834 228.534 7.99994H228.675C228.854 8.02248 229.021 8.09873 229.149 8.21703C229.278 8.33534 229.36 8.48916 229.385 8.65494V8.78493C229.397 8.84269 229.431 8.89464 229.481 8.93196C229.53 8.96929 229.592 8.98968 229.656 8.98968C229.72 8.98968 229.782 8.96929 229.831 8.93196C229.88 8.89464 229.914 8.84269 229.927 8.78493V8.65494C229.951 8.48916 230.034 8.33534 230.162 8.21703C230.291 8.09873 230.457 8.02248 230.637 7.99994H230.778C230.841 7.98834 230.897 7.95709 230.937 7.91152C230.978 7.86594 231 7.80885 231 7.74995C231 7.69104 230.978 7.63395 230.937 7.58838C230.897 7.5428 230.841 7.51156 230.778 7.49995Z" fill="#3A50CA"/>
<path d="M237.297 7.59358L238.603 6.77242H239.305V12.6986C239.305 12.9295 239.315 13.0647 239.335 13.1043C239.355 13.1438 239.417 13.1702 239.523 13.1834L240.067 13.2428V13.5H237.485V13.2428L238.227 13.1834C238.332 13.1768 238.395 13.1537 238.415 13.1142C238.435 13.068 238.444 12.9295 238.444 12.6986V7.24731L237.465 7.86071L237.297 7.59358ZM245.82 9.81962V10.4429C245.82 11.0761 245.731 11.6301 245.553 12.105C245.375 12.5799 245.115 12.9493 244.772 13.2131C244.429 13.4703 244.013 13.5989 243.525 13.5989C243.03 13.5989 242.612 13.4703 242.269 13.2131C241.932 12.9493 241.675 12.5799 241.497 12.105C241.319 11.6301 241.23 11.0761 241.23 10.4429V9.81962C241.23 9.18644 241.319 8.6357 241.497 8.16741C241.675 7.69252 241.932 7.32646 242.269 7.06923C242.612 6.8054 243.03 6.67349 243.525 6.67349C244.013 6.67349 244.429 6.8054 244.772 7.06923C245.115 7.32646 245.375 7.69252 245.553 8.16741C245.731 8.6357 245.82 9.18644 245.82 9.81962ZM244.861 9.12707C244.861 8.36198 244.745 7.81454 244.514 7.48475C244.284 7.15497 243.954 6.99008 243.525 6.99008C243.096 6.99008 242.767 7.15497 242.536 7.48475C242.305 7.81454 242.19 8.36198 242.19 9.12707V11.1355C242.19 11.9071 242.305 12.4579 242.536 12.7877C242.767 13.1175 243.096 13.2823 243.525 13.2823C243.954 13.2823 244.284 13.1175 244.514 12.7877C244.745 12.4579 244.861 11.9071 244.861 11.1355V9.12707ZM251.898 9.81962V10.4429C251.898 11.0761 251.809 11.6301 251.63 12.105C251.452 12.5799 251.192 12.9493 250.849 13.2131C250.506 13.4703 250.09 13.5989 249.602 13.5989C249.108 13.5989 248.689 13.4703 248.346 13.2131C248.009 12.9493 247.752 12.5799 247.574 12.105C247.396 11.6301 247.307 11.0761 247.307 10.4429V9.81962C247.307 9.18644 247.396 8.6357 247.574 8.16741C247.752 7.69252 248.009 7.32646 248.346 7.06923C248.689 6.8054 249.108 6.67349 249.602 6.67349C250.09 6.67349 250.506 6.8054 250.849 7.06923C251.192 7.32646 251.452 7.69252 251.63 8.16741C251.809 8.6357 251.898 9.18644 251.898 9.81962ZM250.938 9.12707C250.938 8.36198 250.823 7.81454 250.592 7.48475C250.361 7.15497 250.031 6.99008 249.602 6.99008C249.174 6.99008 248.844 7.15497 248.613 7.48475C248.382 7.81454 248.267 8.36198 248.267 9.12707V11.1355C248.267 11.9071 248.382 12.4579 248.613 12.7877C248.844 13.1175 249.174 13.2823 249.602 13.2823C250.031 13.2823 250.361 13.1175 250.592 12.7877C250.823 12.4579 250.938 11.9071 250.938 11.1355V9.12707ZM252.919 6.44594V6.17881H254.492V11.2443L256.362 9.34473C256.553 9.15346 256.656 9.03803 256.669 8.99846C256.682 8.95889 256.633 8.9325 256.52 8.91931L256.016 8.86984V8.60272H257.925V8.86984L257.421 8.91931C257.361 8.92591 257.312 8.9391 257.272 8.95889C257.233 8.97208 257.18 9.00835 257.114 9.06771C257.055 9.12048 256.959 9.21282 256.827 9.34473L255.739 10.4429L257.193 12.758C257.279 12.8899 257.342 12.9855 257.381 13.0449C257.427 13.0977 257.47 13.1339 257.51 13.1537C257.549 13.1669 257.602 13.1768 257.668 13.1834L258.183 13.2428V13.5H256.689L255.185 11.0068L254.492 11.7093V12.6986C254.492 12.9295 254.502 13.0647 254.522 13.1043C254.542 13.1438 254.604 13.1702 254.71 13.1834L255.254 13.2428V13.5H252.919V13.2428L253.463 13.1834C253.569 13.1702 253.632 13.1438 253.651 13.1043C253.671 13.0647 253.681 12.9295 253.681 12.6986V6.98019C253.681 6.74934 253.671 6.61413 253.651 6.57455C253.632 6.53498 253.569 6.5086 253.463 6.49541L252.919 6.44594Z" fill="black"/>
<rect x="270" width="53" height="19" rx="9.5" fill="#B9B7B7"/>
<path d="M284.676 2.92789L283.836 2.42456L283.676 3.39056C283.422 4.91589 282.38 6.33323 281.23 7.32923C278.98 9.27989 278.488 11.3999 279.184 13.1499C279.851 14.8246 281.543 15.9712 283.26 16.1626L283.658 16.2066C282.675 15.6059 282.044 14.2026 282.264 13.1539C282.482 12.1232 283.223 11.1579 284.647 10.2672L285.365 9.81923L285.633 10.6226C285.791 11.0972 286.064 11.4786 286.342 11.8659C286.476 12.0526 286.611 12.2412 286.735 12.4419C287.164 13.1386 287.277 13.9132 287 14.6819C286.748 15.3806 286.333 15.9299 285.76 16.2346L286.407 16.1626C288.019 15.9832 289.202 15.4319 289.971 14.5099C290.733 13.5959 291 12.4192 291 11.1666C291 9.99989 290.521 8.79723 289.956 7.79656C289.293 6.62456 288.428 5.65123 287.484 4.70789C287.321 5.03456 287.334 5.16656 286.998 5.69123C286.561 4.53253 285.742 3.55761 284.676 2.92789Z" fill="#C43030"/>
<path d="M300.078 10.1956H299.811V9.87898H300.078C300.625 9.87898 301.008 9.74047 301.225 9.46345C301.45 9.18644 301.562 8.83027 301.562 8.39496C301.562 7.93326 301.466 7.58369 301.275 7.34625C301.083 7.1088 300.813 6.99008 300.463 6.99008C300.008 6.99008 299.692 7.15497 299.514 7.48475C299.342 7.80794 299.289 8.27294 299.355 8.87974L298.495 8.72144C298.435 8.36528 298.465 8.03219 298.584 7.7222C298.709 7.4122 298.927 7.16157 299.237 6.97029C299.553 6.77242 299.966 6.67349 300.473 6.67349C300.961 6.67349 301.354 6.75593 301.651 6.92083C301.954 7.07912 302.175 7.29018 302.314 7.55401C302.452 7.81124 302.521 8.09156 302.521 8.39496C302.521 8.85665 302.38 9.22271 302.096 9.49313C301.819 9.76356 301.417 9.94494 300.889 10.0373C301.45 10.123 301.878 10.3143 302.175 10.6111C302.478 10.9079 302.63 11.3102 302.63 11.8181C302.63 12.1413 302.551 12.4381 302.393 12.7085C302.241 12.9789 302.004 13.1966 301.68 13.3615C301.364 13.5198 300.952 13.5989 300.444 13.5989C299.962 13.5989 299.54 13.4868 299.177 13.2626C298.821 13.0383 298.567 12.636 298.416 12.0555L299.039 11.8775C299.092 12.2402 299.184 12.5238 299.316 12.7283C299.454 12.9328 299.616 13.0779 299.801 13.1636C299.992 13.2428 300.193 13.2823 300.404 13.2823C301.248 13.2823 301.67 12.7943 301.67 11.8181C301.67 11.3432 301.552 10.9541 301.314 10.6507C301.077 10.3473 300.665 10.1956 300.078 10.1956ZM308.55 9.81962V10.4429C308.55 11.0761 308.461 11.6301 308.283 12.105C308.105 12.5799 307.844 12.9493 307.501 13.2131C307.158 13.4703 306.743 13.5989 306.255 13.5989C305.76 13.5989 305.341 13.4703 304.998 13.2131C304.662 12.9493 304.404 12.5799 304.226 12.105C304.048 11.6301 303.959 11.0761 303.959 10.4429V9.81962C303.959 9.18644 304.048 8.6357 304.226 8.16741C304.404 7.69252 304.662 7.32646 304.998 7.06923C305.341 6.8054 305.76 6.67349 306.255 6.67349C306.743 6.67349 307.158 6.8054 307.501 7.06923C307.844 7.32646 308.105 7.69252 308.283 8.16741C308.461 8.6357 308.55 9.18644 308.55 9.81962ZM307.59 9.12707C307.59 8.36198 307.475 7.81454 307.244 7.48475C307.013 7.15497 306.683 6.99008 306.255 6.99008C305.826 6.99008 305.496 7.15497 305.265 7.48475C305.034 7.81454 304.919 8.36198 304.919 9.12707V11.1355C304.919 11.9071 305.034 12.4579 305.265 12.7877C305.496 13.1175 305.826 13.2823 306.255 13.2823C306.683 13.2823 307.013 13.1175 307.244 12.7877C307.475 12.4579 307.59 11.9071 307.59 11.1355V9.12707ZM314.627 9.81962V10.4429C314.627 11.0761 314.538 11.6301 314.36 12.105C314.182 12.5799 313.921 12.9493 313.578 13.2131C313.235 13.4703 312.82 13.5989 312.332 13.5989C311.837 13.5989 311.418 13.4703 311.075 13.2131C310.739 12.9493 310.482 12.5799 310.304 12.105C310.125 11.6301 310.036 11.0761 310.036 10.4429V9.81962C310.036 9.18644 310.125 8.6357 310.304 8.16741C310.482 7.69252 310.739 7.32646 311.075 7.06923C311.418 6.8054 311.837 6.67349 312.332 6.67349C312.82 6.67349 313.235 6.8054 313.578 7.06923C313.921 7.32646 314.182 7.69252 314.36 8.16741C314.538 8.6357 314.627 9.18644 314.627 9.81962ZM313.667 9.12707C313.667 8.36198 313.552 7.81454 313.321 7.48475C313.09 7.15497 312.76 6.99008 312.332 6.99008C311.903 6.99008 311.573 7.15497 311.342 7.48475C311.112 7.81454 310.996 8.36198 310.996 9.12707V11.1355C310.996 11.9071 311.112 12.4579 311.342 12.7877C311.573 13.1175 311.903 13.2823 312.332 13.2823C312.76 13.2823 313.09 13.1175 313.321 12.7877C313.552 12.4579 313.667 11.9071 313.667 11.1355V9.12707Z" fill="black"/>
<defs>
<clipPath id="clip0_95_786">
<rect width="16" height="16" fill="white" transform="translate(7 1.5)"/>
</clipPath>
</defs>
</svg>
